<svg width="348" height="40" viewBox="0 0 348 40" fill="none" xmlns="http://www.w3.org/2000/svg">
<path d="M0.5 13.28C0.5 10.5574 0.646536 8.40368 1.02521 6.69982C1.40261 5.00163 2.00393 3.78112 2.89252 2.89252C3.78112 2.00393 5.00163 1.40261 6.69982 1.02521C8.40368 0.646536 10.5574 0.5 13.28 0.5H334.72C337.443 0.5 339.596 0.646536 341.3 1.02521C342.998 1.40261 344.219 2.00393 345.107 2.89252C345.996 3.78112 346.597 5.00163 346.975 6.69982C347.353 8.40368 347.5 10.5574 347.5 13.28V26.72C347.5 29.4426 347.353 31.5963 346.975 33.3002C346.597 34.9984 345.996 36.2189 345.107 37.1075C344.219 37.9961 342.998 38.5974 341.3 38.9748C339.596 39.3535 337.443 39.5 334.72 39.5H13.28C10.5574 39.5 8.40368 39.3535 6.69982 38.9748C5.00163 38.5974 3.78112 37.9961 2.89252 37.1075C2.00393 36.2189 1.40261 34.9984 1.02521 33.3002C0.646536 31.5963 0.5 29.4426 0.5 26.72V13.28Z" fill="#ffffff" stroke="#bbbbbb"/>
</svg>
