<svg width="368" height="40" viewBox="0 0 368 40" fill="none" xmlns="http://www.w3.org/2000/svg">
<path d="M0.5 13.28C0.5 10.5574 0.646536 8.40368 1.02521 6.69982C1.40261 5.00163 2.00393 3.78112 2.89252 2.89252C3.78112 2.00393 5.00163 1.40261 6.69982 1.02521C8.40368 0.646536 10.5574 0.5 13.28 0.5H354.72C357.443 0.5 359.596 0.646536 361.3 1.02521C362.998 1.40261 364.219 2.00393 365.107 2.89252C365.996 3.78112 366.597 5.00163 366.975 6.69982C367.353 8.40368 367.5 10.5574 367.5 13.28V26.72C367.5 29.4426 367.353 31.5963 366.975 33.3002C366.597 34.9984 365.996 36.2189 365.107 37.1075C364.219 37.9961 362.998 38.5974 361.3 38.9748C359.596 39.3535 357.443 39.5 354.72 39.5H13.28C10.5574 39.5 8.40368 39.3535 6.69982 38.9748C5.00163 38.5974 3.78112 37.9961 2.89252 37.1075C2.00393 36.2189 1.40261 34.9984 1.02521 33.3002C0.646536 31.5963 0.5 29.4426 0.5 26.72V13.28Z" fill="#ffffff" stroke="#bbbbbb"/>
</svg>
